<svg width="18" height="11" viewBox="0 0 18 11" fill="none" xmlns="http://www.w3.org/2000/svg">
<path d="M0.704103 8.20414L8.2041 0.704143C8.30862 0.599262 8.43281 0.516047 8.56956 0.459266C8.7063 0.402485 8.85291 0.373255 9.00098 0.373255C9.14904 0.373255 9.29565 0.402485 9.4324 0.459266C9.56915 0.516047 9.69334 0.599262 9.79785 0.704143L17.2979 8.20414C17.5092 8.41549 17.6279 8.70213 17.6279 9.00102C17.6279 9.2999 17.5092 9.58655 17.2979 9.79789C17.0865 10.0092 16.7999 10.128 16.501 10.128C16.2021 10.128 15.9154 10.0092 15.7041 9.79789L9.00004 3.09383L2.29598 9.79883C2.08463 10.0102 1.79799 10.1289 1.4991 10.1289C1.20022 10.1289 0.913574 10.0102 0.702229 9.79883C0.490885 9.58748 0.37215 9.30084 0.37215 9.00195C0.37215 8.70307 0.490885 8.41642 0.702229 8.20508L0.704103 8.20414Z" fill="#94A3B8"/>
</svg>
