<svg width="112" height="18" viewBox="0 0 112 18" fill="none" xmlns="http://www.w3.org/2000/svg">
<path d="M21.1853 15.7126L11.2936 10.9495V0.470703L21.1853 15.7126ZM21.9718 17.5292L11.2936 13.0209V17.5292H21.9718Z" fill="#98002E"/>
<path d="M1.40192 15.7125L11.2936 0.470703V10.9495L1.40192 15.7125Z" fill="#E31837"/>
<path d="M0.615234 17.5292H11.2934V13.0209L0.615234 17.5292Z" fill="#E31837"/>
<path d="M22.8357 14.4054C23.2234 14.4054 23.5446 14.7155 23.5446 15.1032C23.5446 15.4909 23.2345 15.8122 22.8468 15.8122C22.4591 15.8122 22.1379 15.502 22.1379 15.1143C22.1379 14.7155 22.448 14.4054 22.8357 14.4054ZM22.8357 15.7014C23.168 15.7014 23.4339 15.4355 23.4339 15.1032C23.4339 14.7709 23.168 14.5051 22.8357 14.5051C22.5034 14.5051 22.2376 14.7709 22.2376 15.1032C22.2376 15.4355 22.5034 15.7014 22.8357 15.7014ZM22.6806 15.5131H22.581V14.7045H22.8911C23.0794 14.7045 23.1459 14.782 23.1459 14.926C23.157 15.0479 23.0573 15.1475 22.9465 15.1586L23.1902 15.5131H23.0794L22.8357 15.1586H22.6917L22.6806 15.5131ZM22.6806 15.0589H22.8136C22.9243 15.0589 23.0462 15.0479 23.0462 14.9149C23.0462 14.8152 22.9465 14.782 22.869 14.782H22.6917V15.0589H22.6806Z" fill="#98002E"/>
<path d="M30.3126 15.7125H35.1089C40.0492 15.7125 42.9846 13.1537 42.9846 8.91125C42.9846 4.66879 40.0492 2.12109 35.1089 2.12109H30.3126V15.7125ZM33.3477 4.48048H35.1089C38.3102 4.48048 39.9163 6.06448 39.9163 8.91125C39.9163 11.758 38.3102 13.342 35.1089 13.342H33.3477V4.48048Z" fill="#003D79"/>
<path d="M59.0794 7.46017H53.3083V4.48048H59.8326V2.12109H50.2621V15.7125H60.0431V13.3531H53.3083V9.81955H59.0794V7.46017Z" fill="#003D79"/>
<path d="M71.4855 2.12109H68.4394V15.7125H77.3452V13.3531H71.4855V2.12109Z" fill="#003D79"/>
<path d="M81.5433 4.48048H86.107V15.7125H89.1643V4.48048H93.739V2.12109H81.5433V4.48048Z" fill="#003D79"/>
<path d="M111.385 15.7124H108.206L106.876 12.3118H101.349L100.02 15.7124H97.0511L102.734 2.06567H105.802L111.385 15.7124ZM106.012 10.03L104.118 5.20044L102.213 10.03H106.012Z" fill="#003D79"/>
</svg>
