<svg width="20.998596" height="20.248047" viewBox="0 0 20.9986 20.248" fill="none" xmlns="http://www.w3.org/2000/svg" xmlns:xlink="http://www.w3.org/1999/xlink">
	<desc>
			Created with Pixso.
	</desc>
	<defs/>
	<path id="Vector" d="M20.92 7.61C20.82 7.32 20.65 7.07 20.41 6.88C20.17 6.7 19.88 6.58 19.58 6.56L14.05 6.11L11.91 0.95C11.8 0.66 11.6 0.42 11.35 0.25C11.1 0.09 10.8 0 10.49 0C10.19 0 9.89 0.09 9.64 0.25C9.39 0.42 9.19 0.66 9.08 0.95L6.94 6.11L1.41 6.56C1.11 6.58 0.82 6.7 0.58 6.89C0.34 7.07 0.16 7.33 0.07 7.62C-0.02 7.91 -0.03 8.22 0.05 8.51C0.13 8.8 0.3 9.06 0.53 9.26L4.75 12.9L3.46 18.35C3.39 18.64 3.41 18.95 3.52 19.24C3.62 19.52 3.81 19.77 4.05 19.95C4.3 20.13 4.59 20.23 4.9 20.24C5.2 20.25 5.5 20.18 5.76 20.02L10.49 17.1L15.23 20.02C15.49 20.17 15.79 20.25 16.09 20.24C16.4 20.23 16.69 20.12 16.94 19.95C17.18 19.77 17.37 19.52 17.47 19.24C17.58 18.95 17.6 18.64 17.53 18.35L16.24 12.9L20.45 9.26C20.69 9.06 20.85 8.8 20.94 8.51C21.02 8.21 21.01 7.9 20.92 7.61ZM19.48 8.13L14.91 12.06C14.81 12.15 14.73 12.27 14.69 12.4C14.65 12.53 14.64 12.67 14.67 12.81L16.07 18.69C16.07 18.7 16.07 18.71 16.07 18.72C16.07 18.73 16.06 18.73 16.05 18.74C16.04 18.75 16.03 18.75 16.02 18.74L10.89 15.58C10.77 15.51 10.63 15.47 10.49 15.47L10.49 1.5C10.52 1.5 10.52 1.5 10.53 1.52L12.84 7.11C12.89 7.23 12.98 7.35 13.09 7.43C13.2 7.51 13.33 7.56 13.47 7.57L19.46 8.05C19.48 8.05 19.49 8.05 19.49 8.08C19.5 8.11 19.49 8.12 19.48 8.13Z" fill="#F59E0B" fill-opacity="1.000000" fill-rule="nonzero"/>
</svg>
