<svg width="112" height="46" viewBox="0 0 112 46" fill="none" xmlns="http://www.w3.org/2000/svg">
<mask id="mask0_7_12118" style="mask-type:luminance" maskUnits="userSpaceOnUse" x="0" y="0" width="112" height="46">
<path d="M0.615356 0.735352V9.92927H6.81151V36.071H0.784059V45.1542H22.3455V36.071H16.1492V9.92927H22.1767V0.735352H0.615356ZM61.9842 0.846122V9.92927H68.1805V36.071H62.153V45.1542H77.518V19.8809L86.6738 45.1453L86.8599 45.1497L95.8513 19.8809V45.1542H111.385V36.071H105.188V9.92927H111.216V0.846122H93.8992L86.7295 21.1049L79.4688 0.846122H61.9842Z" fill="white"/>
<path d="M25.2319 0.846191V9.92934H31.428V24.3295H55.2779V21.5682C55.2779 21.5682 57.273 20.0127 57.9087 18.5367L59.1851 15.6728C59.1851 15.6728 59.778 14.0697 59.778 12.6371L59.5226 9.77316C59.5226 9.77316 59.1221 7.44 58.4236 6.74603L55.9572 3.87764C55.9572 3.87764 52.8187 0.846191 48.662 0.846191H25.2319ZM40.7652 9.92934H49.8474V18.3479H40.7652V9.92934Z" fill="white"/>
<path d="M25.2319 45.1543V36.0711H31.428V21.671H55.2779V24.4323C55.2779 24.4323 57.273 25.9877 57.9087 27.4638L59.1851 30.3277C59.1851 30.3277 59.778 31.9308 59.778 33.3634L59.5226 36.2273C59.5226 36.2273 59.1221 38.5605 58.4236 39.2545L55.9572 42.1229C55.9572 42.1229 52.8187 45.1543 48.662 45.1543H25.2319ZM40.7652 36.0711H49.8474V27.6526H40.7652V36.0711Z" fill="white"/>
</mask>
<g mask="url(#mask0_7_12118)">
<path d="M0.615356 2.36182H114.709V8.25833H0.615356M0.615356 14.1548H108.616V20.0525H0.615356V25.9479H108.616V31.8433H0.615356M0.615356 37.7409H114.709V43.6385H0.615356" stroke="#1F70C1" stroke-width="3.03178"/>
</g>
</svg>
