<svg width="112" height="18" viewBox="0 0 112 18" fill="none" xmlns="http://www.w3.org/2000/svg">
<path d="M7.96788 12.4057C8.12028 12.7885 8.07196 13.2792 7.99762 13.5765C7.86752 14.1044 7.51068 14.6433 6.45502 14.6433C5.46628 14.6433 4.86411 14.0709 4.86411 13.2085V11.6734H0.615479V12.8926C0.615479 16.4238 3.39214 17.4906 6.36953 17.4906C9.23169 17.4906 11.5883 16.5168 11.9637 13.8739C12.157 12.506 12.0158 11.6102 11.9489 11.2794C11.2798 7.96373 5.27299 6.97498 4.82322 5.12016C4.76077 4.84663 4.7557 4.56312 4.80835 4.28753C4.91987 3.77829 5.26556 3.22444 6.2543 3.22444C7.18357 3.22444 7.72255 3.79687 7.72255 4.65924V5.64055H11.6738V4.52542C11.6738 1.07597 8.57748 0.536987 6.33979 0.536987C3.52224 0.536987 1.22136 1.46998 0.801333 4.05335C0.68982 4.7596 0.671235 5.3915 0.838504 6.18696C1.52617 9.42083 7.15012 10.3575 7.96788 12.4057Z" fill="#034EA2"/>
<path d="M17.5654 1.04254L14.6289 16.8736H18.9073L21.0743 2.50707H21.1635L23.2711 16.8736H27.5272L24.6093 1.03882L17.5654 1.04254ZM41.4849 1.04254L39.5334 13.1454H39.4405L37.4927 1.04254H31.0361L30.6867 16.8736H34.6491L34.7458 2.64088H34.835L37.4778 16.8736H41.496L44.1426 2.6446H44.2281L44.3284 16.8736H48.2871L47.9377 1.03882L41.4849 1.04254Z" fill="#034EA2"/>
<path d="M59.4383 12.3759C59.5907 12.7587 59.5424 13.2494 59.4681 13.5467C59.338 14.0746 58.9811 14.6136 57.9255 14.6136C56.9367 14.6136 56.3346 14.0411 56.3346 13.1788V11.6436H52.0859V12.8628C52.0859 16.394 54.8626 17.4608 57.84 17.4608C60.7021 17.4608 63.0588 16.487 63.4342 13.8441C63.6275 12.4762 63.4862 11.5804 63.4193 11.2496C62.7503 7.93394 56.7434 6.9452 56.2937 5.09037C56.2312 4.81684 56.2262 4.53333 56.2788 4.25774C56.3903 3.7485 56.736 3.19466 57.7248 3.19466C58.654 3.19466 59.193 3.76709 59.193 4.62945V5.61076H63.1443V4.49564C63.1443 1.04618 60.0479 0.507202 57.8103 0.507202C54.9927 0.507202 52.6918 1.44019 52.2718 4.02357C52.1603 4.72981 52.1417 5.36172 52.309 6.15718C52.9966 9.39104 58.6206 10.3278 59.4383 12.3759Z" fill="#034EA2"/>
<path d="M72.7269 14.502C73.8272 14.502 74.1654 13.7437 74.2435 13.3571C74.2769 13.1861 74.2806 12.9557 74.2806 12.7512V1.04239H78.2877V12.3907C78.2884 12.7379 78.276 13.0851 78.2505 13.4314C77.9717 16.3865 75.6374 17.3455 72.7269 17.3455C69.8127 17.3455 67.4784 16.3865 67.1996 13.4314C67.1885 13.2753 67.1587 12.6806 67.1624 12.3907V1.03867H71.1694V12.7475C71.1657 12.9557 71.1732 13.1861 71.2066 13.3571C71.281 13.7437 71.6229 14.502 72.7269 14.502ZM92.0855 1.04239L92.3011 13.4686H92.2156L88.5729 1.04239H82.6999V16.7062H86.5917L86.3761 3.84879H86.4615L90.3682 16.7062H96.007V1.04239H92.0855ZM105.746 14.3384C106.891 14.3384 107.292 13.6136 107.363 13.1861C107.396 13.0114 107.4 12.7884 107.4 12.5914V10.2868H105.776V7.98219H111.385V12.2271C111.385 12.5245 111.377 12.7401 111.329 13.2679C111.069 16.1524 108.567 17.182 105.761 17.182C102.954 17.182 100.456 16.1524 100.192 13.2679C100.148 12.7401 100.137 12.5245 100.137 12.2271V5.56609C100.137 5.28359 100.174 4.7855 100.204 4.5253C100.557 1.56278 102.954 0.611206 105.761 0.611206C108.567 0.611206 111.028 1.55535 111.318 4.52158C111.37 5.02711 111.355 5.56237 111.355 5.56237V6.09391H107.363V5.20553C107.363 5.20553 107.363 4.83382 107.314 4.60336C107.24 4.25395 106.943 3.45106 105.731 3.45106C104.579 3.45106 104.24 4.21306 104.155 4.60336C104.107 4.81152 104.088 5.09402 104.088 5.35049V12.5877C104.088 12.7884 104.095 13.0114 104.125 13.1898C104.199 13.6136 104.601 14.3384 105.746 14.3384Z" fill="#034EA2"/>
</svg>
