<svg width="92" height="10" viewBox="0 0 92 10" fill="none" xmlns="http://www.w3.org/2000/svg">
<path d="M10.6473 4.53189H3.2348V2.6927H12.793C12.5422 1.91244 11.7341 1.18791 10.3129 1.18791H3.37414C1.78575 1.18791 0.866155 1.77311 0.866155 3.05497V4.42042C0.866155 5.53508 1.81361 6.17601 3.20694 6.17601H10.703V8.12666H0.615356C0.866155 9.18559 1.67428 9.74292 3.12334 9.74292H10.6752C12.2635 9.74292 13.0438 9.12986 13.0438 7.82013V6.45468C13.0438 5.25642 12.1242 4.61549 10.6473 4.53189ZM25.7788 1.21578H16.6386V9.77079H19.2302V6.48254H25.9738C27.8409 6.48254 28.872 5.84161 28.872 4.33682V3.38936C28.8441 1.99604 27.6737 1.21578 25.7788 1.21578ZM26.6148 3.94669C26.6148 4.55976 26.5033 4.89415 25.5001 4.89415H19.2302L19.258 2.66484H25.3886C26.5033 2.66484 26.6426 2.99923 26.6426 3.58443V3.94669H26.6148ZM37.4827 6.42681H31.9651L30.5997 7.87587H38.5695L39.9349 9.77079H43.0003L36.3959 0.853516L34.8354 2.7763L37.4827 6.42681ZM47.9605 2.6927H57.658C57.4072 1.68951 56.4319 1.18791 55.0386 1.18791H47.7933C46.5393 1.18791 45.341 1.68951 45.341 3.05497V7.848C45.341 9.21346 46.5393 9.71505 47.7933 9.71505H55.1222C56.7942 9.71505 57.3794 9.24132 57.658 8.0988H47.9605V2.6927ZM69.0275 5.53508V4.08603H61.1971V9.77079H72.7617V8.15453H63.8165V5.53508H69.0275ZM61.4757 1.21578H73.1518V2.72057H61.4757V1.21578ZM80.3413 1.21578H76.2728L81.0659 4.72695C81.7625 4.25322 82.5706 3.75163 83.2952 3.33363L80.3413 1.21578ZM86.249 5.59082C85.5524 6.06455 84.8557 6.59401 84.1869 7.0956L87.8095 9.74292H91.9059L86.249 5.59082Z" fill="black"/>
</svg>
