<svg width="20.987793" height="20.247070" viewBox="0 0 20.9878 20.2471" fill="none" xmlns="http://www.w3.org/2000/svg" xmlns:xlink="http://www.w3.org/1999/xlink">
	<desc>
			Created with Pixso.
	</desc>
	<defs/>
	<path id="Vector" d="M20.45 9.26L16.24 12.9L17.52 18.35C17.59 18.64 17.57 18.95 17.47 19.24C17.36 19.52 17.18 19.77 16.93 19.95C16.68 20.13 16.39 20.23 16.09 20.24C15.78 20.25 15.48 20.17 15.22 20.02L10.49 17.1L5.75 20.02C5.49 20.17 5.19 20.25 4.89 20.24C4.59 20.23 4.29 20.12 4.05 19.95C3.8 19.77 3.62 19.52 3.51 19.23C3.41 18.95 3.39 18.64 3.46 18.35L4.75 12.9L0.53 9.26C0.3 9.06 0.13 8.8 0.05 8.51C-0.03 8.22 -0.02 7.91 0.07 7.62C0.16 7.33 0.34 7.08 0.58 6.89C0.81 6.7 1.1 6.58 1.4 6.56L6.93 6.11L9.07 0.95C9.18 0.66 9.38 0.42 9.63 0.25C9.89 0.09 10.18 0 10.49 0C10.79 0 11.09 0.09 11.34 0.25C11.59 0.42 11.79 0.66 11.91 0.95L14.04 6.11L19.57 6.56C19.87 6.58 20.16 6.7 20.4 6.89C20.64 7.07 20.81 7.33 20.91 7.62C21 7.91 21.01 8.22 20.93 8.51C20.84 8.8 20.68 9.06 20.45 9.26L20.45 9.26Z" fill="#F59E0B" fill-opacity="1.000000" fill-rule="nonzero"/>
</svg>
