<svg width="112" height="40" viewBox="0 0 112 40" fill="none" xmlns="http://www.w3.org/2000/svg">
<path d="M6.98829 28.2364C7.45639 29.4786 8.10446 30.5408 8.93262 31.4228C9.76079 32.305 10.7419 32.9801 11.876 33.4482C13.0102 33.9163 14.2434 34.1503 15.5756 34.1503C16.8719 34.1503 18.087 33.9072 19.2212 33.4211C20.3555 32.9349 21.3455 32.2509 22.1916 31.3688C23.0377 30.4866 23.6949 29.4336 24.163 28.2094C24.6311 26.9852 24.8651 25.6171 24.8651 24.1048V0.773193H30.5359V38.5789H24.9191V35.0683C23.6589 36.4004 22.1736 37.4266 20.4634 38.1469C18.753 38.8669 16.9079 39.227 14.9276 39.227C12.9112 39.227 11.0299 38.8759 9.28361 38.1738C7.53741 37.4717 6.02508 36.4726 4.74698 35.1764C3.46888 33.8801 2.46062 32.3231 1.72256 30.5047C0.984386 28.6864 0.615356 26.6612 0.615356 24.4287V0.773193H6.2862V24.1048C6.2862 25.6171 6.52019 26.9941 6.98829 28.2364ZM40.3109 0.773193V14.5452C41.5711 13.2851 43.0294 12.286 44.6856 11.5478C46.3418 10.8097 48.1421 10.4406 50.0864 10.4406C52.1028 10.4406 53.9928 10.8186 55.7572 11.5747C57.5214 12.3308 59.0516 13.357 60.3478 14.6533C61.6441 15.9495 62.6703 17.4797 63.4264 19.2439C64.1825 21.0083 64.5605 22.8806 64.5605 24.8609C64.5605 26.841 64.1825 28.7044 63.4264 30.4506C62.6703 32.1969 61.6441 33.7182 60.3478 35.0142C59.0516 36.3105 57.5214 37.3366 55.7572 38.0927C53.9928 38.8489 52.1026 39.2268 50.0864 39.2268C48.142 39.2268 46.3328 38.8578 44.6586 38.1196C42.9843 37.3816 41.5171 36.3824 40.2569 35.1222V38.5788H34.8561V0.773193H40.3109ZM40.932 28.5874C41.418 29.7396 42.0932 30.7478 42.9573 31.6119C43.8215 32.476 44.8296 33.1602 45.9817 33.6643C47.134 34.1683 48.3761 34.4204 49.7084 34.4204C51.0046 34.4204 52.2287 34.1683 53.3809 33.6643C54.533 33.1602 55.5321 32.4762 56.3784 31.6119C57.2245 30.7479 57.8996 29.7396 58.4036 28.5874C58.9077 27.4352 59.1597 26.1931 59.1597 24.8609C59.1597 23.5286 58.9077 22.2774 58.4036 21.1072C57.8996 19.937 57.2245 18.9199 56.3784 18.0558C55.5322 17.1918 54.5331 16.5166 53.3809 16.0306C52.2286 15.5445 51.0045 15.3013 49.7084 15.3013C48.4122 15.3013 47.188 15.5444 46.0359 16.0306C44.8837 16.5167 43.8756 17.1918 43.0113 18.0558C42.1473 18.9199 41.4632 19.937 40.9591 21.1072C40.455 22.2774 40.203 23.5286 40.203 24.8609C40.2029 26.1931 40.4459 27.4352 40.932 28.5874ZM67.6385 19.298C68.3585 17.5698 69.3488 16.0486 70.6089 14.7344C71.8689 13.4202 73.3633 12.3851 75.0916 11.629C76.8199 10.8729 78.6921 10.4949 80.7084 10.4949C82.6887 10.4949 84.525 10.8549 86.2173 11.575C87.9095 12.2951 89.3677 13.2943 90.5919 14.5725C91.8161 15.8506 92.7704 17.3629 93.4543 19.1091C94.1384 20.8554 94.4805 22.7547 94.4805 24.8071V26.5894H72.0672C72.2473 27.7055 72.6073 28.7407 73.1474 29.6947C73.6875 30.6488 74.3625 31.477 75.1726 32.1791C75.9827 32.8813 76.9009 33.4304 77.9271 33.8263C78.9532 34.2224 80.0423 34.4205 81.1946 34.4205C84.4711 34.4205 87.1176 33.0702 89.1338 30.3698L93.0764 33.2862C91.7082 35.1225 90.016 36.5627 87.9997 37.6068C85.9833 38.651 83.715 39.1731 81.1947 39.1731C79.1423 39.1731 77.2251 38.8129 75.4428 38.0929C73.6605 37.3729 72.1123 36.3646 70.7981 35.0683C69.484 33.7721 68.4488 32.2509 67.6927 30.5047C66.9366 28.7585 66.5585 26.8591 66.5585 24.8068C66.5583 22.8626 66.9184 21.0263 67.6385 19.298ZM75.2266 17.1647C73.6964 18.4429 72.6793 20.1441 72.1752 22.2684H88.9718C88.5037 20.1441 87.5045 18.4429 85.9743 17.1647C84.444 15.8866 82.6527 15.2474 80.6005 15.2474C78.5481 15.2474 76.7569 15.8866 75.2266 17.1647ZM104.688 17.7857C103.536 19.0459 102.959 20.7561 102.959 22.9165V38.579H97.5045V11.0348H102.905V14.4373C103.589 13.3212 104.481 12.439 105.579 11.7909C106.677 11.1427 107.982 10.8186 109.494 10.8186H111.385V15.8954H109.116C107.316 15.8955 105.84 16.5255 104.688 17.7857Z" fill="#010202"/>
</svg>
